<mxfile host="app.diagrams.net" modified="2023-03-06T03:50:09.825Z" agent="5.0 (Windows NT 10.0; Win64; x64) AppleWebKit/537.36 (KHTML, like Gecko) Chrome/110.0.0.0 Safari/537.36" etag="JTAl5nsY2gtQ16UNpImo" version="21.0.2" type="github">
  <diagram id="2f404044-711c-603c-8f00-f6bb4c023d3c" name="Page-1">
    <mxGraphModel dx="1434" dy="834" grid="1" gridSize="10" guides="1" tooltips="1" connect="1" arrows="1" fold="1" page="1" pageScale="1" pageWidth="1169" pageHeight="827" background="none" math="0" shadow="0">
      <root>
        <mxCell id="0" />
        <mxCell id="1" parent="0" />
        <mxCell id="63" value="" style="swimlane;shadow=0;strokeColor=#4277BB;fillColor=#ffffff;fontColor=#4277BB;align=right;startSize=0;collapsible=0;strokeWidth=3;" parent="1" vertex="1">
          <mxGeometry x="28" y="20" width="1032" height="460" as="geometry" />
        </mxCell>
        <mxCell id="322" style="edgeStyle=orthogonalEdgeStyle;rounded=0;html=1;labelBackgroundColor=#ffffff;startArrow=classic;startFill=1;startSize=4;endArrow=classic;endFill=1;endSize=4;jettySize=auto;orthogonalLoop=1;strokeColor=#4277BB;strokeWidth=2;fontSize=12;fontColor=#4277BB;entryX=1;entryY=0.25;" parent="63" target="296" edge="1">
          <mxGeometry relative="1" as="geometry">
            <Array as="points">
              <mxPoint x="465" y="37" />
              <mxPoint x="935" y="37" />
              <mxPoint x="935" y="299" />
            </Array>
            <mxPoint x="465" y="333.63932022500217" as="sourcePoint" />
          </mxGeometry>
        </mxCell>
        <mxCell id="102" value="RAW DATA" style="text;html=1;align=left;verticalAlign=top;fontColor=#4277BB;shadow=0;dashed=0;strokeColor=none;fillColor=none;labelBackgroundColor=none;fontStyle=1;fontSize=16;spacingLeft=5;" parent="63" vertex="1">
          <mxGeometry x="14" y="40" width="130" height="30" as="geometry" />
        </mxCell>
        <mxCell id="103" value="" style="line;strokeWidth=3;direction=south;html=1;shadow=0;labelBackgroundColor=none;fillColor=none;gradientColor=none;fontSize=12;fontColor=#4277BB;align=right;strokeColor=#4277BB;" parent="63" vertex="1">
          <mxGeometry x="125" y="1" width="10" height="99" as="geometry" />
        </mxCell>
        <mxCell id="106" value="" style="line;strokeWidth=3;direction=south;html=1;shadow=0;labelBackgroundColor=none;fillColor=none;gradientColor=none;fontSize=12;fontColor=#4277BB;align=right;strokeColor=#4277BB;" parent="63" vertex="1">
          <mxGeometry x="773" width="10" height="140" as="geometry" />
        </mxCell>
        <mxCell id="108" value="ANALYTICS" style="text;html=1;align=left;verticalAlign=top;fontColor=#4277BB;shadow=0;dashed=0;strokeColor=none;fillColor=none;labelBackgroundColor=none;fontStyle=1;fontSize=16;spacingLeft=5;" parent="63" vertex="1">
          <mxGeometry x="842.53" y="35.5" width="120" height="30" as="geometry" />
        </mxCell>
        <mxCell id="320" value="" style="line;strokeWidth=3;direction=south;html=1;shadow=0;labelBackgroundColor=none;fillColor=none;gradientColor=none;fontSize=12;fontColor=#4277BB;align=right;strokeColor=#4277BB;" parent="63" vertex="1">
          <mxGeometry x="440" width="10" height="60" as="geometry" />
        </mxCell>
        <mxCell id="349" value="&lt;div&gt;DATA INGESTION&lt;/div&gt;" style="text;html=1;align=center;verticalAlign=top;fontColor=#4277BB;shadow=0;dashed=0;strokeColor=none;fillColor=none;labelBackgroundColor=none;fontStyle=1;fontSize=16;spacingLeft=5;" parent="63" vertex="1">
          <mxGeometry x="189" y="35.5" width="193" height="49" as="geometry" />
        </mxCell>
        <mxCell id="YtO8ENbUkFj5sczrVTES-435" style="edgeStyle=orthogonalEdgeStyle;rounded=0;orthogonalLoop=1;jettySize=auto;html=1;entryX=0;entryY=0.592;entryDx=0;entryDy=0;entryPerimeter=0;" edge="1" parent="63" source="YtO8ENbUkFj5sczrVTES-433" target="YtO8ENbUkFj5sczrVTES-434">
          <mxGeometry relative="1" as="geometry" />
        </mxCell>
        <mxCell id="YtO8ENbUkFj5sczrVTES-433" value="HealthCare&lt;br&gt;Dataset&lt;br&gt;(HCUP)" style="sketch=0;aspect=fixed;html=1;points=[];align=center;image;fontSize=12;image=img/lib/mscae/User_Health_Icon.svg;" vertex="1" parent="63">
          <mxGeometry x="42" y="164.5" width="46" height="50" as="geometry" />
        </mxCell>
        <mxCell id="YtO8ENbUkFj5sczrVTES-439" style="edgeStyle=orthogonalEdgeStyle;rounded=0;orthogonalLoop=1;jettySize=auto;html=1;entryX=0.5;entryY=0;entryDx=0;entryDy=0;entryPerimeter=0;" edge="1" parent="63" source="YtO8ENbUkFj5sczrVTES-434" target="YtO8ENbUkFj5sczrVTES-438">
          <mxGeometry relative="1" as="geometry" />
        </mxCell>
        <mxCell id="YtO8ENbUkFj5sczrVTES-444" style="edgeStyle=orthogonalEdgeStyle;rounded=0;orthogonalLoop=1;jettySize=auto;html=1;entryX=0;entryY=0.5;entryDx=0;entryDy=0;" edge="1" parent="63" source="YtO8ENbUkFj5sczrVTES-434" target="YtO8ENbUkFj5sczrVTES-443">
          <mxGeometry relative="1" as="geometry" />
        </mxCell>
        <mxCell id="YtO8ENbUkFj5sczrVTES-434" value="HD Insights Cluster" style="sketch=0;aspect=fixed;html=1;points=[];align=center;image;fontSize=12;image=img/lib/mscae/HDInsightClusters.svg;" vertex="1" parent="63">
          <mxGeometry x="260.5" y="161" width="50" height="49" as="geometry" />
        </mxCell>
        <mxCell id="YtO8ENbUkFj5sczrVTES-436" value="Linked Service" style="aspect=fixed;html=1;points=[];align=center;image;fontSize=12;image=img/lib/azure2/networking/Private_Link_Service.svg;" vertex="1" parent="63">
          <mxGeometry x="130" y="123.5" width="69" height="40" as="geometry" />
        </mxCell>
        <mxCell id="YtO8ENbUkFj5sczrVTES-438" value="Azure Blob Storage for Raw Data" style="verticalLabelPosition=bottom;html=1;verticalAlign=top;align=center;strokeColor=none;fillColor=#00BEF2;shape=mxgraph.azure.storage_blob;" vertex="1" parent="63">
          <mxGeometry x="260.5" y="355" width="50" height="45" as="geometry" />
        </mxCell>
        <mxCell id="YtO8ENbUkFj5sczrVTES-440" value="&lt;div&gt;DATA PREPARATION&amp;nbsp;&lt;/div&gt;&lt;div&gt;&amp;amp;&amp;nbsp;&lt;/div&gt;&lt;div&gt;TRANSFORMATION&lt;/div&gt;" style="text;html=1;align=center;verticalAlign=top;fontColor=#4277BB;shadow=0;dashed=0;strokeColor=none;fillColor=none;labelBackgroundColor=none;fontStyle=1;fontSize=16;spacingLeft=5;" vertex="1" parent="63">
          <mxGeometry x="530" y="35.5" width="193" height="49" as="geometry" />
        </mxCell>
        <mxCell id="YtO8ENbUkFj5sczrVTES-449" style="edgeStyle=orthogonalEdgeStyle;rounded=0;orthogonalLoop=1;jettySize=auto;html=1;entryX=0;entryY=0.5;entryDx=0;entryDy=0;" edge="1" parent="63" source="YtO8ENbUkFj5sczrVTES-443" target="YtO8ENbUkFj5sczrVTES-448">
          <mxGeometry relative="1" as="geometry" />
        </mxCell>
        <mxCell id="YtO8ENbUkFj5sczrVTES-452" style="edgeStyle=orthogonalEdgeStyle;rounded=0;orthogonalLoop=1;jettySize=auto;html=1;entryX=0.5;entryY=0;entryDx=0;entryDy=0;entryPerimeter=0;" edge="1" parent="63" source="YtO8ENbUkFj5sczrVTES-443" target="YtO8ENbUkFj5sczrVTES-450">
          <mxGeometry relative="1" as="geometry" />
        </mxCell>
        <mxCell id="YtO8ENbUkFj5sczrVTES-443" value="" style="shape=image;verticalLabelPosition=bottom;labelBackgroundColor=default;verticalAlign=top;aspect=fixed;imageAspect=0;image=https://upload.wikimedia.org/wikipedia/commons/thumb/f/f3/Apache_Spark_logo.svg/1200px-Apache_Spark_logo.svg.png;" vertex="1" parent="63">
          <mxGeometry x="570.5" y="154.49999999999997" width="122" height="63.35" as="geometry" />
        </mxCell>
        <mxCell id="YtO8ENbUkFj5sczrVTES-445" value="Azure Data Factory&lt;br&gt;Copy Activity" style="aspect=fixed;html=1;points=[];align=center;image;fontSize=12;image=img/lib/azure2/databases/Data_Factory.svg;" vertex="1" parent="63">
          <mxGeometry x="324.5" y="265" width="52" height="52" as="geometry" />
        </mxCell>
        <mxCell id="YtO8ENbUkFj5sczrVTES-446" value="Azure Data Factory Spark Activity" style="aspect=fixed;html=1;points=[];align=center;image;fontSize=12;image=img/lib/azure2/databases/Data_Factory.svg;" vertex="1" parent="63">
          <mxGeometry x="419" y="90" width="52" height="52" as="geometry" />
        </mxCell>
        <mxCell id="YtO8ENbUkFj5sczrVTES-456" style="edgeStyle=orthogonalEdgeStyle;rounded=0;orthogonalLoop=1;jettySize=auto;html=1;entryX=0.5;entryY=0;entryDx=0;entryDy=0;entryPerimeter=0;" edge="1" parent="63" source="YtO8ENbUkFj5sczrVTES-448" target="YtO8ENbUkFj5sczrVTES-455">
          <mxGeometry relative="1" as="geometry" />
        </mxCell>
        <mxCell id="YtO8ENbUkFj5sczrVTES-448" value="Power BI" style="shape=image;verticalLabelPosition=bottom;labelBackgroundColor=default;verticalAlign=top;aspect=fixed;imageAspect=0;image=https://powerbi.microsoft.com/pictures/shared/social/social-default-image.png;" vertex="1" parent="63">
          <mxGeometry x="850" y="158.5" width="105.05" height="55.15" as="geometry" />
        </mxCell>
        <mxCell id="YtO8ENbUkFj5sczrVTES-450" value="Azure Blob Storage for Transformed Data" style="verticalLabelPosition=bottom;html=1;verticalAlign=top;align=center;strokeColor=none;fillColor=#00BEF2;shape=mxgraph.azure.storage_blob;" vertex="1" parent="63">
          <mxGeometry x="607" y="355" width="50" height="45" as="geometry" />
        </mxCell>
        <mxCell id="YtO8ENbUkFj5sczrVTES-451" value="Azure Data Factory&lt;br&gt;Copy Activity" style="aspect=fixed;html=1;points=[];align=center;image;fontSize=12;image=img/lib/azure2/databases/Data_Factory.svg;" vertex="1" parent="63">
          <mxGeometry x="671" y="265" width="52" height="52" as="geometry" />
        </mxCell>
        <mxCell id="YtO8ENbUkFj5sczrVTES-455" value="Azure Blob Storage for Power BI Exports" style="verticalLabelPosition=bottom;html=1;verticalAlign=top;align=center;strokeColor=none;fillColor=#00BEF2;shape=mxgraph.azure.storage_blob;" vertex="1" parent="63">
          <mxGeometry x="877.53" y="355" width="50" height="45" as="geometry" />
        </mxCell>
        <mxCell id="YtO8ENbUkFj5sczrVTES-457" value="Power BI Exports" style="sketch=0;outlineConnect=0;fontColor=#232F3E;gradientColor=none;fillColor=#3F8624;strokeColor=none;dashed=0;verticalLabelPosition=bottom;verticalAlign=top;align=center;html=1;fontSize=12;fontStyle=0;aspect=fixed;pointerEvents=1;shape=mxgraph.aws4.file_system;" vertex="1" parent="63">
          <mxGeometry x="942" y="270" width="42.74" height="40" as="geometry" />
        </mxCell>
        <mxCell id="YtO8ENbUkFj5sczrVTES-459" value="" style="line;strokeWidth=3;direction=south;html=1;shadow=0;labelBackgroundColor=none;fillColor=none;gradientColor=none;fontSize=12;fontColor=#4277BB;align=right;strokeColor=#4277BB;" vertex="1" parent="63">
          <mxGeometry x="125" y="220" width="10" height="240" as="geometry" />
        </mxCell>
        <mxCell id="YtO8ENbUkFj5sczrVTES-460" value="" style="line;strokeWidth=3;direction=south;html=1;shadow=0;labelBackgroundColor=none;fillColor=none;gradientColor=none;fontSize=12;fontColor=#4277BB;align=right;strokeColor=#4277BB;" vertex="1" parent="63">
          <mxGeometry x="440" y="220" width="10" height="240" as="geometry" />
        </mxCell>
        <mxCell id="YtO8ENbUkFj5sczrVTES-461" value="" style="line;strokeWidth=3;direction=south;html=1;shadow=0;labelBackgroundColor=none;fillColor=none;gradientColor=none;fontSize=12;fontColor=#4277BB;align=right;strokeColor=#4277BB;" vertex="1" parent="63">
          <mxGeometry x="773" y="220" width="10" height="240" as="geometry" />
        </mxCell>
        <mxCell id="YtO8ENbUkFj5sczrVTES-466" value="Azure DevOps Pipeline" style="aspect=fixed;html=1;points=[];align=center;image;fontSize=12;image=img/lib/azure2/devops/Azure_DevOps.svg;" vertex="1" parent="1">
          <mxGeometry x="160" y="505.2" width="64" height="64" as="geometry" />
        </mxCell>
        <mxCell id="YtO8ENbUkFj5sczrVTES-467" value="Azure Repos" style="sketch=0;aspect=fixed;html=1;points=[];align=center;image;fontSize=12;image=img/lib/mscae/Azure_Repos.svg;" vertex="1" parent="1">
          <mxGeometry x="400" y="505.20000000000005" width="45" height="50" as="geometry" />
        </mxCell>
        <mxCell id="YtO8ENbUkFj5sczrVTES-468" value="Azure Monitor" style="aspect=fixed;html=1;points=[];align=center;image;fontSize=12;image=img/lib/azure2/other/Azure_Monitor_Dashboard.svg;" vertex="1" parent="1">
          <mxGeometry x="620" y="505.2" width="68" height="63.2" as="geometry" />
        </mxCell>
        <mxCell id="YtO8ENbUkFj5sczrVTES-469" value="Azure Log Analytics" style="aspect=fixed;html=1;points=[];align=center;image;fontSize=12;image=img/lib/azure2/analytics/Log_Analytics_Workspaces.svg;" vertex="1" parent="1">
          <mxGeometry x="850" y="505.20000000000005" width="64" height="64" as="geometry" />
        </mxCell>
        <mxCell id="YtO8ENbUkFj5sczrVTES-471" value="" style="shape=flexArrow;endArrow=classic;startArrow=classic;html=1;rounded=0;fillColor=#dae8fc;strokeColor=#6c8ebf;" edge="1" parent="1">
          <mxGeometry width="100" height="100" relative="1" as="geometry">
            <mxPoint x="30" y="610" as="sourcePoint" />
            <mxPoint x="1060" y="610" as="targetPoint" />
          </mxGeometry>
        </mxCell>
      </root>
    </mxGraphModel>
  </diagram>
</mxfile>
